%TF.GenerationSoftware,KiCad,Pcbnew,(5.1.6)-1*%
%TF.CreationDate,2020-09-25T17:37:12+06:00*%
%TF.ProjectId,TMC2130,544d4332-3133-4302-9e6b-696361645f70,rev?*%
%TF.SameCoordinates,Original*%
%TF.FileFunction,Copper,L1,Top*%
%TF.FilePolarity,Positive*%
%FSLAX46Y46*%
G04 Gerber Fmt 4.6, Leading zero omitted, Abs format (unit mm)*
G04 Created by KiCad (PCBNEW (5.1.6)-1) date 2020-09-25 17:37:12*
%MOMM*%
%LPD*%
G01*
G04 APERTURE LIST*
%TA.AperFunction,ComponentPad*%
%ADD10O,1.700000X1.950000*%
%TD*%
%TA.AperFunction,ComponentPad*%
%ADD11C,1.651000*%
%TD*%
%TA.AperFunction,ComponentPad*%
%ADD12R,1.651000X1.651000*%
%TD*%
%TA.AperFunction,ComponentPad*%
%ADD13O,1.600000X1.600000*%
%TD*%
%TA.AperFunction,ComponentPad*%
%ADD14R,1.600000X1.600000*%
%TD*%
%TA.AperFunction,ComponentPad*%
%ADD15C,2.800000*%
%TD*%
%TA.AperFunction,ComponentPad*%
%ADD16R,2.800000X2.800000*%
%TD*%
%TA.AperFunction,ViaPad*%
%ADD17C,2.500000*%
%TD*%
%TA.AperFunction,ViaPad*%
%ADD18C,3.000000*%
%TD*%
%TA.AperFunction,Conductor*%
%ADD19C,0.250000*%
%TD*%
%TA.AperFunction,Conductor*%
%ADD20C,0.500000*%
%TD*%
%TA.AperFunction,Conductor*%
%ADD21C,2.500000*%
%TD*%
%TA.AperFunction,Conductor*%
%ADD22C,1.500000*%
%TD*%
G04 APERTURE END LIST*
D10*
%TO.P,J11,8*%
%TO.N,VM*%
X-14500000Y-31100000D03*
%TO.P,J11,7*%
%TO.N,GND*%
X-12000000Y-31100000D03*
%TO.P,J11,6*%
%TO.N,Net-(A5-Pad6)*%
X-9500000Y-31100000D03*
%TO.P,J11,5*%
%TO.N,Net-(A5-Pad5)*%
X-7000000Y-31100000D03*
%TO.P,J11,4*%
%TO.N,Net-(A5-Pad4)*%
X-4500000Y-31100000D03*
%TO.P,J11,3*%
%TO.N,Net-(A5-Pad3)*%
X-2000000Y-31100000D03*
%TO.P,J11,2*%
%TO.N,VDD*%
X500000Y-31100000D03*
%TO.P,J11,1*%
%TO.N,GND*%
%TA.AperFunction,ComponentPad*%
G36*
G01*
X3850000Y-30375000D02*
X3850000Y-31825000D01*
G75*
G02*
X3600000Y-32075000I-250000J0D01*
G01*
X2400000Y-32075000D01*
G75*
G02*
X2150000Y-31825000I0J250000D01*
G01*
X2150000Y-30375000D01*
G75*
G02*
X2400000Y-30125000I250000J0D01*
G01*
X3600000Y-30125000D01*
G75*
G02*
X3850000Y-30375000I0J-250000D01*
G01*
G37*
%TD.AperFunction*%
%TD*%
%TO.P,J10,8*%
%TO.N,N/C*%
X-15300000Y-69100000D03*
%TO.P,J10,7*%
X-12800000Y-69100000D03*
%TO.P,J10,6*%
%TO.N,GND*%
X-10300000Y-69100000D03*
%TO.P,J10,5*%
%TO.N,Net-(A5-Pad15)*%
X-7800000Y-69100000D03*
%TO.P,J10,4*%
%TO.N,Net-(A5-Pad9)*%
X-5300000Y-69100000D03*
%TO.P,J10,3*%
%TO.N,Net-(A5-Pad16)*%
X-2800000Y-69100000D03*
%TO.P,J10,2*%
%TO.N,N/C*%
X-300000Y-69100000D03*
%TO.P,J10,1*%
%TA.AperFunction,ComponentPad*%
G36*
G01*
X3050000Y-68375000D02*
X3050000Y-69825000D01*
G75*
G02*
X2800000Y-70075000I-250000J0D01*
G01*
X1600000Y-70075000D01*
G75*
G02*
X1350000Y-69825000I0J250000D01*
G01*
X1350000Y-68375000D01*
G75*
G02*
X1600000Y-68125000I250000J0D01*
G01*
X2800000Y-68125000D01*
G75*
G02*
X3050000Y-68375000I0J-250000D01*
G01*
G37*
%TD.AperFunction*%
%TD*%
D11*
%TO.P,C5,2*%
%TO.N,GND*%
X-12050320Y-37100000D03*
D12*
%TO.P,C5,1*%
%TO.N,VM*%
X-14549680Y-37100000D03*
%TD*%
D13*
%TO.P,A5,16*%
%TO.N,Net-(A5-Pad16)*%
X3200000Y-57000000D03*
%TO.P,A5,8*%
%TO.N,VM*%
X-14580000Y-44300000D03*
%TO.P,A5,15*%
%TO.N,Net-(A5-Pad15)*%
X660000Y-57000000D03*
%TO.P,A5,7*%
%TO.N,GND*%
X-12040000Y-44300000D03*
%TO.P,A5,14*%
%TO.N,N/C*%
X-1880000Y-57000000D03*
%TO.P,A5,6*%
%TO.N,Net-(A5-Pad6)*%
X-9500000Y-44300000D03*
%TO.P,A5,13*%
%TO.N,N/C*%
X-4420000Y-57000000D03*
%TO.P,A5,5*%
%TO.N,Net-(A5-Pad5)*%
X-6960000Y-44300000D03*
%TO.P,A5,12*%
%TO.N,N/C*%
X-6960000Y-57000000D03*
%TO.P,A5,4*%
%TO.N,Net-(A5-Pad4)*%
X-4420000Y-44300000D03*
%TO.P,A5,11*%
%TO.N,N/C*%
X-9500000Y-57000000D03*
%TO.P,A5,3*%
%TO.N,Net-(A5-Pad3)*%
X-1880000Y-44300000D03*
%TO.P,A5,10*%
%TO.N,N/C*%
X-12040000Y-57000000D03*
%TO.P,A5,2*%
%TO.N,VDD*%
X660000Y-44300000D03*
%TO.P,A5,9*%
%TO.N,Net-(A5-Pad9)*%
X-14580000Y-57000000D03*
D14*
%TO.P,A5,1*%
%TO.N,GND*%
X3200000Y-44300000D03*
%TD*%
D10*
%TO.P,J7,8*%
%TO.N,VM*%
X8800000Y-31100000D03*
%TO.P,J7,7*%
%TO.N,GND*%
X11300000Y-31100000D03*
%TO.P,J7,6*%
%TO.N,Net-(A4-Pad6)*%
X13800000Y-31100000D03*
%TO.P,J7,5*%
%TO.N,Net-(A4-Pad5)*%
X16300000Y-31100000D03*
%TO.P,J7,4*%
%TO.N,Net-(A4-Pad4)*%
X18800000Y-31100000D03*
%TO.P,J7,3*%
%TO.N,Net-(A4-Pad3)*%
X21300000Y-31100000D03*
%TO.P,J7,2*%
%TO.N,VDD*%
X23800000Y-31100000D03*
%TO.P,J7,1*%
%TO.N,GND*%
%TA.AperFunction,ComponentPad*%
G36*
G01*
X27150000Y-30375000D02*
X27150000Y-31825000D01*
G75*
G02*
X26900000Y-32075000I-250000J0D01*
G01*
X25700000Y-32075000D01*
G75*
G02*
X25450000Y-31825000I0J250000D01*
G01*
X25450000Y-30375000D01*
G75*
G02*
X25700000Y-30125000I250000J0D01*
G01*
X26900000Y-30125000D01*
G75*
G02*
X27150000Y-30375000I0J-250000D01*
G01*
G37*
%TD.AperFunction*%
%TD*%
%TO.P,J6,8*%
%TO.N,N/C*%
X8500000Y-69100000D03*
%TO.P,J6,7*%
X11000000Y-69100000D03*
%TO.P,J6,6*%
%TO.N,GND*%
X13500000Y-69100000D03*
%TO.P,J6,5*%
%TO.N,Net-(A4-Pad15)*%
X16000000Y-69100000D03*
%TO.P,J6,4*%
%TO.N,Net-(A4-Pad9)*%
X18500000Y-69100000D03*
%TO.P,J6,3*%
%TO.N,Net-(A4-Pad16)*%
X21000000Y-69100000D03*
%TO.P,J6,2*%
%TO.N,N/C*%
X23500000Y-69100000D03*
%TO.P,J6,1*%
%TA.AperFunction,ComponentPad*%
G36*
G01*
X26850000Y-68375000D02*
X26850000Y-69825000D01*
G75*
G02*
X26600000Y-70075000I-250000J0D01*
G01*
X25400000Y-70075000D01*
G75*
G02*
X25150000Y-69825000I0J250000D01*
G01*
X25150000Y-68375000D01*
G75*
G02*
X25400000Y-68125000I250000J0D01*
G01*
X26600000Y-68125000D01*
G75*
G02*
X26850000Y-68375000I0J-250000D01*
G01*
G37*
%TD.AperFunction*%
%TD*%
D11*
%TO.P,C4,2*%
%TO.N,GND*%
X11299360Y-35900000D03*
D12*
%TO.P,C4,1*%
%TO.N,VM*%
X8800000Y-35900000D03*
%TD*%
D13*
%TO.P,A4,16*%
%TO.N,Net-(A4-Pad16)*%
X26500000Y-57100000D03*
%TO.P,A4,8*%
%TO.N,VM*%
X8720000Y-44400000D03*
%TO.P,A4,15*%
%TO.N,Net-(A4-Pad15)*%
X23960000Y-57100000D03*
%TO.P,A4,7*%
%TO.N,GND*%
X11260000Y-44400000D03*
%TO.P,A4,14*%
%TO.N,N/C*%
X21420000Y-57100000D03*
%TO.P,A4,6*%
%TO.N,Net-(A4-Pad6)*%
X13800000Y-44400000D03*
%TO.P,A4,13*%
%TO.N,N/C*%
X18880000Y-57100000D03*
%TO.P,A4,5*%
%TO.N,Net-(A4-Pad5)*%
X16340000Y-44400000D03*
%TO.P,A4,12*%
%TO.N,N/C*%
X16340000Y-57100000D03*
%TO.P,A4,4*%
%TO.N,Net-(A4-Pad4)*%
X18880000Y-44400000D03*
%TO.P,A4,11*%
%TO.N,N/C*%
X13800000Y-57100000D03*
%TO.P,A4,3*%
%TO.N,Net-(A4-Pad3)*%
X21420000Y-44400000D03*
%TO.P,A4,10*%
%TO.N,N/C*%
X11260000Y-57100000D03*
%TO.P,A4,2*%
%TO.N,VDD*%
X23960000Y-44400000D03*
%TO.P,A4,9*%
%TO.N,Net-(A4-Pad9)*%
X8720000Y-57100000D03*
D14*
%TO.P,A4,1*%
%TO.N,GND*%
X26500000Y-44400000D03*
%TD*%
D10*
%TO.P,J5,8*%
%TO.N,VM*%
X32900000Y-31100000D03*
%TO.P,J5,7*%
%TO.N,GND*%
X35400000Y-31100000D03*
%TO.P,J5,6*%
%TO.N,Net-(A2-Pad6)*%
X37900000Y-31100000D03*
%TO.P,J5,5*%
%TO.N,Net-(A2-Pad5)*%
X40400000Y-31100000D03*
%TO.P,J5,4*%
%TO.N,Net-(A2-Pad4)*%
X42900000Y-31100000D03*
%TO.P,J5,3*%
%TO.N,Net-(A2-Pad3)*%
X45400000Y-31100000D03*
%TO.P,J5,2*%
%TO.N,VDD*%
X47900000Y-31100000D03*
%TO.P,J5,1*%
%TO.N,GND*%
%TA.AperFunction,ComponentPad*%
G36*
G01*
X51250000Y-30375000D02*
X51250000Y-31825000D01*
G75*
G02*
X51000000Y-32075000I-250000J0D01*
G01*
X49800000Y-32075000D01*
G75*
G02*
X49550000Y-31825000I0J250000D01*
G01*
X49550000Y-30375000D01*
G75*
G02*
X49800000Y-30125000I250000J0D01*
G01*
X51000000Y-30125000D01*
G75*
G02*
X51250000Y-30375000I0J-250000D01*
G01*
G37*
%TD.AperFunction*%
%TD*%
%TO.P,J3,8*%
%TO.N,N/C*%
X32600000Y-69100000D03*
%TO.P,J3,7*%
X35100000Y-69100000D03*
%TO.P,J3,6*%
%TO.N,GND*%
X37600000Y-69100000D03*
%TO.P,J3,5*%
%TO.N,Net-(A2-Pad15)*%
X40100000Y-69100000D03*
%TO.P,J3,4*%
%TO.N,Net-(A2-Pad9)*%
X42600000Y-69100000D03*
%TO.P,J3,3*%
%TO.N,Net-(A2-Pad16)*%
X45100000Y-69100000D03*
%TO.P,J3,2*%
%TO.N,N/C*%
X47600000Y-69100000D03*
%TO.P,J3,1*%
%TA.AperFunction,ComponentPad*%
G36*
G01*
X50950000Y-68375000D02*
X50950000Y-69825000D01*
G75*
G02*
X50700000Y-70075000I-250000J0D01*
G01*
X49500000Y-70075000D01*
G75*
G02*
X49250000Y-69825000I0J250000D01*
G01*
X49250000Y-68375000D01*
G75*
G02*
X49500000Y-68125000I250000J0D01*
G01*
X50700000Y-68125000D01*
G75*
G02*
X50950000Y-68375000I0J-250000D01*
G01*
G37*
%TD.AperFunction*%
%TD*%
D11*
%TO.P,C2,2*%
%TO.N,GND*%
X35349680Y-35900000D03*
D12*
%TO.P,C2,1*%
%TO.N,VM*%
X32850320Y-35900000D03*
%TD*%
D13*
%TO.P,A2,16*%
%TO.N,Net-(A2-Pad16)*%
X50500000Y-57100000D03*
%TO.P,A2,8*%
%TO.N,VM*%
X32720000Y-44400000D03*
%TO.P,A2,15*%
%TO.N,Net-(A2-Pad15)*%
X47960000Y-57100000D03*
%TO.P,A2,7*%
%TO.N,GND*%
X35260000Y-44400000D03*
%TO.P,A2,14*%
%TO.N,N/C*%
X45420000Y-57100000D03*
%TO.P,A2,6*%
%TO.N,Net-(A2-Pad6)*%
X37800000Y-44400000D03*
%TO.P,A2,13*%
%TO.N,N/C*%
X42880000Y-57100000D03*
%TO.P,A2,5*%
%TO.N,Net-(A2-Pad5)*%
X40340000Y-44400000D03*
%TO.P,A2,12*%
%TO.N,N/C*%
X40340000Y-57100000D03*
%TO.P,A2,4*%
%TO.N,Net-(A2-Pad4)*%
X42880000Y-44400000D03*
%TO.P,A2,11*%
%TO.N,N/C*%
X37800000Y-57100000D03*
%TO.P,A2,3*%
%TO.N,Net-(A2-Pad3)*%
X45420000Y-44400000D03*
%TO.P,A2,10*%
%TO.N,N/C*%
X35260000Y-57100000D03*
%TO.P,A2,2*%
%TO.N,VDD*%
X47960000Y-44400000D03*
%TO.P,A2,9*%
%TO.N,Net-(A2-Pad9)*%
X32720000Y-57100000D03*
D14*
%TO.P,A2,1*%
%TO.N,GND*%
X50500000Y-44400000D03*
%TD*%
D10*
%TO.P,J9,8*%
%TO.N,N/C*%
X80200000Y-69100000D03*
%TO.P,J9,7*%
X82700000Y-69100000D03*
%TO.P,J9,6*%
%TO.N,GND*%
X85200000Y-69100000D03*
%TO.P,J9,5*%
%TO.N,Net-(A1-Pad15)*%
X87700000Y-69100000D03*
%TO.P,J9,4*%
%TO.N,Net-(A1-Pad9)*%
X90200000Y-69100000D03*
%TO.P,J9,3*%
%TO.N,Net-(A1-Pad16)*%
X92700000Y-69100000D03*
%TO.P,J9,2*%
%TO.N,N/C*%
X95200000Y-69100000D03*
%TO.P,J9,1*%
%TA.AperFunction,ComponentPad*%
G36*
G01*
X98550000Y-68375000D02*
X98550000Y-69825000D01*
G75*
G02*
X98300000Y-70075000I-250000J0D01*
G01*
X97100000Y-70075000D01*
G75*
G02*
X96850000Y-69825000I0J250000D01*
G01*
X96850000Y-68375000D01*
G75*
G02*
X97100000Y-68125000I250000J0D01*
G01*
X98300000Y-68125000D01*
G75*
G02*
X98550000Y-68375000I0J-250000D01*
G01*
G37*
%TD.AperFunction*%
%TD*%
%TO.P,J8,8*%
%TO.N,VM*%
X56600000Y-31100000D03*
%TO.P,J8,7*%
%TO.N,GND*%
X59100000Y-31100000D03*
%TO.P,J8,6*%
%TO.N,Net-(A3-Pad6)*%
X61600000Y-31100000D03*
%TO.P,J8,5*%
%TO.N,Net-(A3-Pad5)*%
X64100000Y-31100000D03*
%TO.P,J8,4*%
%TO.N,Net-(A3-Pad4)*%
X66600000Y-31100000D03*
%TO.P,J8,3*%
%TO.N,Net-(A3-Pad3)*%
X69100000Y-31100000D03*
%TO.P,J8,2*%
%TO.N,VDD*%
X71600000Y-31100000D03*
%TO.P,J8,1*%
%TO.N,GND*%
%TA.AperFunction,ComponentPad*%
G36*
G01*
X74950000Y-30375000D02*
X74950000Y-31825000D01*
G75*
G02*
X74700000Y-32075000I-250000J0D01*
G01*
X73500000Y-32075000D01*
G75*
G02*
X73250000Y-31825000I0J250000D01*
G01*
X73250000Y-30375000D01*
G75*
G02*
X73500000Y-30125000I250000J0D01*
G01*
X74700000Y-30125000D01*
G75*
G02*
X74950000Y-30375000I0J-250000D01*
G01*
G37*
%TD.AperFunction*%
%TD*%
%TO.P,J4,8*%
%TO.N,N/C*%
X56500000Y-69100000D03*
%TO.P,J4,7*%
X59000000Y-69100000D03*
%TO.P,J4,6*%
%TO.N,GND*%
X61500000Y-69100000D03*
%TO.P,J4,5*%
%TO.N,Net-(A3-Pad15)*%
X64000000Y-69100000D03*
%TO.P,J4,4*%
%TO.N,Net-(A3-Pad9)*%
X66500000Y-69100000D03*
%TO.P,J4,3*%
%TO.N,Net-(A3-Pad16)*%
X69000000Y-69100000D03*
%TO.P,J4,2*%
%TO.N,N/C*%
X71500000Y-69100000D03*
%TO.P,J4,1*%
%TA.AperFunction,ComponentPad*%
G36*
G01*
X74850000Y-68375000D02*
X74850000Y-69825000D01*
G75*
G02*
X74600000Y-70075000I-250000J0D01*
G01*
X73400000Y-70075000D01*
G75*
G02*
X73150000Y-69825000I0J250000D01*
G01*
X73150000Y-68375000D01*
G75*
G02*
X73400000Y-68125000I250000J0D01*
G01*
X74600000Y-68125000D01*
G75*
G02*
X74850000Y-68375000I0J-250000D01*
G01*
G37*
%TD.AperFunction*%
%TD*%
D11*
%TO.P,C3,2*%
%TO.N,GND*%
X58899360Y-35800000D03*
D12*
%TO.P,C3,1*%
%TO.N,VM*%
X56400000Y-35800000D03*
%TD*%
D13*
%TO.P,A3,16*%
%TO.N,Net-(A3-Pad16)*%
X74300000Y-57100000D03*
%TO.P,A3,8*%
%TO.N,VM*%
X56520000Y-44400000D03*
%TO.P,A3,15*%
%TO.N,Net-(A3-Pad15)*%
X71760000Y-57100000D03*
%TO.P,A3,7*%
%TO.N,GND*%
X59060000Y-44400000D03*
%TO.P,A3,14*%
%TO.N,N/C*%
X69220000Y-57100000D03*
%TO.P,A3,6*%
%TO.N,Net-(A3-Pad6)*%
X61600000Y-44400000D03*
%TO.P,A3,13*%
%TO.N,N/C*%
X66680000Y-57100000D03*
%TO.P,A3,5*%
%TO.N,Net-(A3-Pad5)*%
X64140000Y-44400000D03*
%TO.P,A3,12*%
%TO.N,N/C*%
X64140000Y-57100000D03*
%TO.P,A3,4*%
%TO.N,Net-(A3-Pad4)*%
X66680000Y-44400000D03*
%TO.P,A3,11*%
%TO.N,N/C*%
X61600000Y-57100000D03*
%TO.P,A3,3*%
%TO.N,Net-(A3-Pad3)*%
X69220000Y-44400000D03*
%TO.P,A3,10*%
%TO.N,N/C*%
X59060000Y-57100000D03*
%TO.P,A3,2*%
%TO.N,VDD*%
X71760000Y-44400000D03*
%TO.P,A3,9*%
%TO.N,Net-(A3-Pad9)*%
X56520000Y-57100000D03*
D14*
%TO.P,A3,1*%
%TO.N,GND*%
X74300000Y-44400000D03*
%TD*%
D10*
%TO.P,J2,8*%
%TO.N,VM*%
X80200000Y-31100000D03*
%TO.P,J2,7*%
%TO.N,GND*%
X82700000Y-31100000D03*
%TO.P,J2,6*%
%TO.N,Net-(A1-Pad6)*%
X85200000Y-31100000D03*
%TO.P,J2,5*%
%TO.N,Net-(A1-Pad5)*%
X87700000Y-31100000D03*
%TO.P,J2,4*%
%TO.N,Net-(A1-Pad4)*%
X90200000Y-31100000D03*
%TO.P,J2,3*%
%TO.N,Net-(A1-Pad3)*%
X92700000Y-31100000D03*
%TO.P,J2,2*%
%TO.N,VDD*%
X95200000Y-31100000D03*
%TO.P,J2,1*%
%TO.N,GND*%
%TA.AperFunction,ComponentPad*%
G36*
G01*
X98550000Y-30375000D02*
X98550000Y-31825000D01*
G75*
G02*
X98300000Y-32075000I-250000J0D01*
G01*
X97100000Y-32075000D01*
G75*
G02*
X96850000Y-31825000I0J250000D01*
G01*
X96850000Y-30375000D01*
G75*
G02*
X97100000Y-30125000I250000J0D01*
G01*
X98300000Y-30125000D01*
G75*
G02*
X98550000Y-30375000I0J-250000D01*
G01*
G37*
%TD.AperFunction*%
%TD*%
D11*
%TO.P,C1,2*%
%TO.N,GND*%
X82649680Y-35900000D03*
D12*
%TO.P,C1,1*%
%TO.N,VM*%
X80150320Y-35900000D03*
%TD*%
D15*
%TO.P,J1,6*%
%TO.N,VM*%
X124819000Y-58978000D03*
%TO.P,J1,5*%
%TO.N,VDD*%
X124819000Y-53978000D03*
%TO.P,J1,4*%
%TO.N,GND*%
X124819000Y-48978000D03*
%TO.P,J1,3*%
X124819000Y-43978000D03*
%TO.P,J1,2*%
%TO.N,N/C*%
X124819000Y-38978000D03*
D16*
%TO.P,J1,1*%
X124819000Y-33978000D03*
%TD*%
D13*
%TO.P,A1,16*%
%TO.N,Net-(A1-Pad16)*%
X97958500Y-57028500D03*
%TO.P,A1,8*%
%TO.N,VM*%
X80178500Y-44328500D03*
%TO.P,A1,15*%
%TO.N,Net-(A1-Pad15)*%
X95418500Y-57028500D03*
%TO.P,A1,7*%
%TO.N,GND*%
X82718500Y-44328500D03*
%TO.P,A1,14*%
%TO.N,N/C*%
X92878500Y-57028500D03*
%TO.P,A1,6*%
%TO.N,Net-(A1-Pad6)*%
X85258500Y-44328500D03*
%TO.P,A1,13*%
%TO.N,N/C*%
X90338500Y-57028500D03*
%TO.P,A1,5*%
%TO.N,Net-(A1-Pad5)*%
X87798500Y-44328500D03*
%TO.P,A1,12*%
%TO.N,N/C*%
X87798500Y-57028500D03*
%TO.P,A1,4*%
%TO.N,Net-(A1-Pad4)*%
X90338500Y-44328500D03*
%TO.P,A1,11*%
%TO.N,N/C*%
X85258500Y-57028500D03*
%TO.P,A1,3*%
%TO.N,Net-(A1-Pad3)*%
X92878500Y-44328500D03*
%TO.P,A1,10*%
%TO.N,N/C*%
X82718500Y-57028500D03*
%TO.P,A1,2*%
%TO.N,VDD*%
X95418500Y-44328500D03*
%TO.P,A1,9*%
%TO.N,Net-(A1-Pad9)*%
X80178500Y-57028500D03*
D14*
%TO.P,A1,1*%
%TO.N,GND*%
X97958500Y-44328500D03*
%TD*%
D17*
%TO.N,GND*%
X82800000Y-39800000D03*
D18*
X101900000Y-37000000D03*
X101900000Y-45700000D03*
D17*
X59112672Y-39618462D03*
X35318462Y-39618462D03*
X11350000Y-39618462D03*
X-11981538Y-39618462D03*
%TO.N,VM*%
X80100000Y-41600000D03*
X56600000Y-41600000D03*
X32720000Y-41680000D03*
X8720000Y-41720000D03*
X-14580000Y-41720000D03*
D18*
%TO.N,VDD*%
X116312500Y-53978000D03*
X116312500Y-44312500D03*
D17*
X113072000Y-53978000D03*
X72178000Y-53978000D03*
D18*
%TO.N,Net-(A2-Pad9)*%
X36800000Y-63500000D03*
X42600000Y-63500000D03*
%TO.N,Net-(A1-Pad9)*%
X82100000Y-63600000D03*
X90200000Y-63600000D03*
%TO.N,Net-(A3-Pad9)*%
X60700000Y-64200000D03*
X66500000Y-64200000D03*
%TO.N,Net-(A4-Pad9)*%
X12700000Y-63100000D03*
X18500000Y-63100000D03*
%TO.N,Net-(A5-Pad9)*%
X-10900000Y-63200000D03*
X-5300000Y-63200000D03*
%TD*%
D19*
%TO.N,GND*%
X101900000Y-37000000D02*
X101900000Y-45700000D01*
X82800000Y-39800000D02*
X59100000Y-39800000D01*
X59100000Y-39800000D02*
X59100000Y-39631134D01*
X59100000Y-39631134D02*
X59112672Y-39618462D01*
X59112672Y-39618462D02*
X35318462Y-39618462D01*
X35318462Y-39618462D02*
X11418462Y-39618462D01*
X11418462Y-39618462D02*
X11350000Y-39618462D01*
X11350000Y-39618462D02*
X-11981538Y-39618462D01*
%TO.N,VM*%
X80100000Y-41600000D02*
X79974999Y-41725001D01*
D20*
X80100000Y-41600000D02*
X56600000Y-41600000D01*
D19*
X56600000Y-41600000D02*
X32800000Y-41600000D01*
X32800000Y-41600000D02*
X32720000Y-41680000D01*
X8760000Y-41680000D02*
X8720000Y-41720000D01*
X32720000Y-41680000D02*
X8760000Y-41680000D01*
X8720000Y-41720000D02*
X-14580000Y-41720000D01*
D21*
%TO.N,VDD*%
X116312500Y-53978000D02*
X116312500Y-44312500D01*
X116312500Y-44312500D02*
X116300000Y-44300000D01*
D22*
X113072000Y-53978000D02*
X72178000Y-53978000D01*
%TO.N,Net-(A2-Pad9)*%
X36800000Y-63500000D02*
X42600000Y-63500000D01*
%TO.N,Net-(A1-Pad9)*%
X82100000Y-63600000D02*
X90200000Y-63600000D01*
%TO.N,Net-(A3-Pad9)*%
X60700000Y-64200000D02*
X66500000Y-64200000D01*
%TO.N,Net-(A4-Pad9)*%
X12700000Y-63100000D02*
X18500000Y-63100000D01*
%TO.N,Net-(A5-Pad9)*%
X-10900000Y-63200000D02*
X-5300000Y-63200000D01*
%TD*%
M02*
