%TF.GenerationSoftware,KiCad,Pcbnew,(5.1.6)-1*%
%TF.CreationDate,2020-09-25T17:37:12+06:00*%
%TF.ProjectId,TMC2130,544d4332-3133-4302-9e6b-696361645f70,rev?*%
%TF.SameCoordinates,Original*%
%TF.FileFunction,Soldermask,Top*%
%TF.FilePolarity,Negative*%
%FSLAX46Y46*%
G04 Gerber Fmt 4.6, Leading zero omitted, Abs format (unit mm)*
G04 Created by KiCad (PCBNEW (5.1.6)-1) date 2020-09-25 17:37:12*
%MOMM*%
%LPD*%
G01*
G04 APERTURE LIST*
%ADD10C,3.300000*%
%ADD11O,1.800000X2.050000*%
%ADD12C,1.854200*%
%ADD13R,1.854200X1.854200*%
%ADD14O,1.700000X1.700000*%
%ADD15R,1.700000X1.700000*%
%ADD16C,2.900000*%
%ADD17R,2.900000X2.900000*%
G04 APERTURE END LIST*
D10*
%TO.C,REF\u002A\u002A*%
X-19800000Y-25900000D03*
%TD*%
%TO.C,REF\u002A\u002A*%
X133000000Y-26000000D03*
%TD*%
%TO.C,REF\u002A\u002A*%
X133000000Y-74800000D03*
%TD*%
%TO.C,REF\u002A\u002A*%
X-19800000Y-74900000D03*
%TD*%
D11*
%TO.C,J11*%
X-14500000Y-31100000D03*
X-12000000Y-31100000D03*
X-9500000Y-31100000D03*
X-7000000Y-31100000D03*
X-4500000Y-31100000D03*
X-2000000Y-31100000D03*
X500000Y-31100000D03*
G36*
G01*
X3900000Y-30339706D02*
X3900000Y-31860294D01*
G75*
G02*
X3635294Y-32125000I-264706J0D01*
G01*
X2364706Y-32125000D01*
G75*
G02*
X2100000Y-31860294I0J264706D01*
G01*
X2100000Y-30339706D01*
G75*
G02*
X2364706Y-30075000I264706J0D01*
G01*
X3635294Y-30075000D01*
G75*
G02*
X3900000Y-30339706I0J-264706D01*
G01*
G37*
%TD*%
%TO.C,J10*%
X-15300000Y-69100000D03*
X-12800000Y-69100000D03*
X-10300000Y-69100000D03*
X-7800000Y-69100000D03*
X-5300000Y-69100000D03*
X-2800000Y-69100000D03*
X-300000Y-69100000D03*
G36*
G01*
X3100000Y-68339706D02*
X3100000Y-69860294D01*
G75*
G02*
X2835294Y-70125000I-264706J0D01*
G01*
X1564706Y-70125000D01*
G75*
G02*
X1300000Y-69860294I0J264706D01*
G01*
X1300000Y-68339706D01*
G75*
G02*
X1564706Y-68075000I264706J0D01*
G01*
X2835294Y-68075000D01*
G75*
G02*
X3100000Y-68339706I0J-264706D01*
G01*
G37*
%TD*%
D12*
%TO.C,C5*%
X-12050320Y-37100000D03*
D13*
X-14549680Y-37100000D03*
%TD*%
D14*
%TO.C,A5*%
X3200000Y-57000000D03*
X-14580000Y-44300000D03*
X660000Y-57000000D03*
X-12040000Y-44300000D03*
X-1880000Y-57000000D03*
X-9500000Y-44300000D03*
X-4420000Y-57000000D03*
X-6960000Y-44300000D03*
X-6960000Y-57000000D03*
X-4420000Y-44300000D03*
X-9500000Y-57000000D03*
X-1880000Y-44300000D03*
X-12040000Y-57000000D03*
X660000Y-44300000D03*
X-14580000Y-57000000D03*
D15*
X3200000Y-44300000D03*
%TD*%
D11*
%TO.C,J7*%
X8800000Y-31100000D03*
X11300000Y-31100000D03*
X13800000Y-31100000D03*
X16300000Y-31100000D03*
X18800000Y-31100000D03*
X21300000Y-31100000D03*
X23800000Y-31100000D03*
G36*
G01*
X27200000Y-30339706D02*
X27200000Y-31860294D01*
G75*
G02*
X26935294Y-32125000I-264706J0D01*
G01*
X25664706Y-32125000D01*
G75*
G02*
X25400000Y-31860294I0J264706D01*
G01*
X25400000Y-30339706D01*
G75*
G02*
X25664706Y-30075000I264706J0D01*
G01*
X26935294Y-30075000D01*
G75*
G02*
X27200000Y-30339706I0J-264706D01*
G01*
G37*
%TD*%
%TO.C,J6*%
X8500000Y-69100000D03*
X11000000Y-69100000D03*
X13500000Y-69100000D03*
X16000000Y-69100000D03*
X18500000Y-69100000D03*
X21000000Y-69100000D03*
X23500000Y-69100000D03*
G36*
G01*
X26900000Y-68339706D02*
X26900000Y-69860294D01*
G75*
G02*
X26635294Y-70125000I-264706J0D01*
G01*
X25364706Y-70125000D01*
G75*
G02*
X25100000Y-69860294I0J264706D01*
G01*
X25100000Y-68339706D01*
G75*
G02*
X25364706Y-68075000I264706J0D01*
G01*
X26635294Y-68075000D01*
G75*
G02*
X26900000Y-68339706I0J-264706D01*
G01*
G37*
%TD*%
D12*
%TO.C,C4*%
X11299360Y-35900000D03*
D13*
X8800000Y-35900000D03*
%TD*%
D14*
%TO.C,A4*%
X26500000Y-57100000D03*
X8720000Y-44400000D03*
X23960000Y-57100000D03*
X11260000Y-44400000D03*
X21420000Y-57100000D03*
X13800000Y-44400000D03*
X18880000Y-57100000D03*
X16340000Y-44400000D03*
X16340000Y-57100000D03*
X18880000Y-44400000D03*
X13800000Y-57100000D03*
X21420000Y-44400000D03*
X11260000Y-57100000D03*
X23960000Y-44400000D03*
X8720000Y-57100000D03*
D15*
X26500000Y-44400000D03*
%TD*%
D11*
%TO.C,J5*%
X32900000Y-31100000D03*
X35400000Y-31100000D03*
X37900000Y-31100000D03*
X40400000Y-31100000D03*
X42900000Y-31100000D03*
X45400000Y-31100000D03*
X47900000Y-31100000D03*
G36*
G01*
X51300000Y-30339706D02*
X51300000Y-31860294D01*
G75*
G02*
X51035294Y-32125000I-264706J0D01*
G01*
X49764706Y-32125000D01*
G75*
G02*
X49500000Y-31860294I0J264706D01*
G01*
X49500000Y-30339706D01*
G75*
G02*
X49764706Y-30075000I264706J0D01*
G01*
X51035294Y-30075000D01*
G75*
G02*
X51300000Y-30339706I0J-264706D01*
G01*
G37*
%TD*%
%TO.C,J3*%
X32600000Y-69100000D03*
X35100000Y-69100000D03*
X37600000Y-69100000D03*
X40100000Y-69100000D03*
X42600000Y-69100000D03*
X45100000Y-69100000D03*
X47600000Y-69100000D03*
G36*
G01*
X51000000Y-68339706D02*
X51000000Y-69860294D01*
G75*
G02*
X50735294Y-70125000I-264706J0D01*
G01*
X49464706Y-70125000D01*
G75*
G02*
X49200000Y-69860294I0J264706D01*
G01*
X49200000Y-68339706D01*
G75*
G02*
X49464706Y-68075000I264706J0D01*
G01*
X50735294Y-68075000D01*
G75*
G02*
X51000000Y-68339706I0J-264706D01*
G01*
G37*
%TD*%
D12*
%TO.C,C2*%
X35349680Y-35900000D03*
D13*
X32850320Y-35900000D03*
%TD*%
D14*
%TO.C,A2*%
X50500000Y-57100000D03*
X32720000Y-44400000D03*
X47960000Y-57100000D03*
X35260000Y-44400000D03*
X45420000Y-57100000D03*
X37800000Y-44400000D03*
X42880000Y-57100000D03*
X40340000Y-44400000D03*
X40340000Y-57100000D03*
X42880000Y-44400000D03*
X37800000Y-57100000D03*
X45420000Y-44400000D03*
X35260000Y-57100000D03*
X47960000Y-44400000D03*
X32720000Y-57100000D03*
D15*
X50500000Y-44400000D03*
%TD*%
D11*
%TO.C,J9*%
X80200000Y-69100000D03*
X82700000Y-69100000D03*
X85200000Y-69100000D03*
X87700000Y-69100000D03*
X90200000Y-69100000D03*
X92700000Y-69100000D03*
X95200000Y-69100000D03*
G36*
G01*
X98600000Y-68339706D02*
X98600000Y-69860294D01*
G75*
G02*
X98335294Y-70125000I-264706J0D01*
G01*
X97064706Y-70125000D01*
G75*
G02*
X96800000Y-69860294I0J264706D01*
G01*
X96800000Y-68339706D01*
G75*
G02*
X97064706Y-68075000I264706J0D01*
G01*
X98335294Y-68075000D01*
G75*
G02*
X98600000Y-68339706I0J-264706D01*
G01*
G37*
%TD*%
%TO.C,J8*%
X56600000Y-31100000D03*
X59100000Y-31100000D03*
X61600000Y-31100000D03*
X64100000Y-31100000D03*
X66600000Y-31100000D03*
X69100000Y-31100000D03*
X71600000Y-31100000D03*
G36*
G01*
X75000000Y-30339706D02*
X75000000Y-31860294D01*
G75*
G02*
X74735294Y-32125000I-264706J0D01*
G01*
X73464706Y-32125000D01*
G75*
G02*
X73200000Y-31860294I0J264706D01*
G01*
X73200000Y-30339706D01*
G75*
G02*
X73464706Y-30075000I264706J0D01*
G01*
X74735294Y-30075000D01*
G75*
G02*
X75000000Y-30339706I0J-264706D01*
G01*
G37*
%TD*%
%TO.C,J4*%
X56500000Y-69100000D03*
X59000000Y-69100000D03*
X61500000Y-69100000D03*
X64000000Y-69100000D03*
X66500000Y-69100000D03*
X69000000Y-69100000D03*
X71500000Y-69100000D03*
G36*
G01*
X74900000Y-68339706D02*
X74900000Y-69860294D01*
G75*
G02*
X74635294Y-70125000I-264706J0D01*
G01*
X73364706Y-70125000D01*
G75*
G02*
X73100000Y-69860294I0J264706D01*
G01*
X73100000Y-68339706D01*
G75*
G02*
X73364706Y-68075000I264706J0D01*
G01*
X74635294Y-68075000D01*
G75*
G02*
X74900000Y-68339706I0J-264706D01*
G01*
G37*
%TD*%
D12*
%TO.C,C3*%
X58899360Y-35800000D03*
D13*
X56400000Y-35800000D03*
%TD*%
D14*
%TO.C,A3*%
X74300000Y-57100000D03*
X56520000Y-44400000D03*
X71760000Y-57100000D03*
X59060000Y-44400000D03*
X69220000Y-57100000D03*
X61600000Y-44400000D03*
X66680000Y-57100000D03*
X64140000Y-44400000D03*
X64140000Y-57100000D03*
X66680000Y-44400000D03*
X61600000Y-57100000D03*
X69220000Y-44400000D03*
X59060000Y-57100000D03*
X71760000Y-44400000D03*
X56520000Y-57100000D03*
D15*
X74300000Y-44400000D03*
%TD*%
D11*
%TO.C,J2*%
X80200000Y-31100000D03*
X82700000Y-31100000D03*
X85200000Y-31100000D03*
X87700000Y-31100000D03*
X90200000Y-31100000D03*
X92700000Y-31100000D03*
X95200000Y-31100000D03*
G36*
G01*
X98600000Y-30339706D02*
X98600000Y-31860294D01*
G75*
G02*
X98335294Y-32125000I-264706J0D01*
G01*
X97064706Y-32125000D01*
G75*
G02*
X96800000Y-31860294I0J264706D01*
G01*
X96800000Y-30339706D01*
G75*
G02*
X97064706Y-30075000I264706J0D01*
G01*
X98335294Y-30075000D01*
G75*
G02*
X98600000Y-30339706I0J-264706D01*
G01*
G37*
%TD*%
D12*
%TO.C,C1*%
X82649680Y-35900000D03*
D13*
X80150320Y-35900000D03*
%TD*%
D16*
%TO.C,J1*%
X124819000Y-58978000D03*
X124819000Y-53978000D03*
X124819000Y-48978000D03*
X124819000Y-43978000D03*
X124819000Y-38978000D03*
D17*
X124819000Y-33978000D03*
%TD*%
D14*
%TO.C,A1*%
X97958500Y-57028500D03*
X80178500Y-44328500D03*
X95418500Y-57028500D03*
X82718500Y-44328500D03*
X92878500Y-57028500D03*
X85258500Y-44328500D03*
X90338500Y-57028500D03*
X87798500Y-44328500D03*
X87798500Y-57028500D03*
X90338500Y-44328500D03*
X85258500Y-57028500D03*
X92878500Y-44328500D03*
X82718500Y-57028500D03*
X95418500Y-44328500D03*
X80178500Y-57028500D03*
D15*
X97958500Y-44328500D03*
%TD*%
M02*
